<?xml version="1.0" standalone="no"?>
<!DOCTYPE svg PUBLIC "-//W3C//DTD SVG 20010904//EN"
 "http://www.w3.org/TR/2001/REC-SVG-20010904/DTD/svg10.dtd">
<svg version="1.0" xmlns="http://www.w3.org/2000/svg"
 width="750.000000pt" height="1000.000000pt" viewBox="0 0 750.000000 1000.000000"
 preserveAspectRatio="xMidYMid meet">

<g transform="translate(0.000000,1000.000000) scale(0.100000,-0.100000)"
fill="#000000" stroke="none">
<path d="M4030 9965 l0 -35 -225 0 -225 0 0 -35 0 -35 -135 0 -135 0 0 -35 0
-35 -61 0 c-52 0 -60 -2 -55 -16 3 -9 6 -24 6 -35 0 -17 8 -19 80 -19 l80 0 0
35 0 35 110 0 110 0 0 35 0 35 225 0 225 0 0 35 0 35 220 0 220 0 0 -35 0 -35
55 0 55 0 0 35 0 35 -55 0 -55 0 0 35 0 35 -220 0 -220 0 0 -35z"/>
<path d="M5920 9895 l0 -35 -195 0 -195 0 0 -35 0 -35 -140 0 -140 0 0 -35 0
-35 -85 0 -85 0 0 -35 0 -35 -80 0 -80 0 0 -35 0 -35 -85 0 -85 0 0 -35 0 -35
-55 0 -55 0 0 -35 c0 -32 -2 -35 -30 -35 -26 0 -29 -3 -27 -29 2 -28 4 -30 55
-33 l52 -3 0 33 c0 34 0 34 70 36 45 1 45 1 42 34 l-4 32 86 0 86 0 0 35 0 35
85 0 85 0 0 35 0 34 83 3 82 3 -3 33 -4 32 141 0 141 0 0 35 0 35 195 0 195 0
0 35 0 35 170 0 170 0 0 -35 0 -35 55 0 55 0 0 -34 c0 -30 3 -35 27 -38 24 -3
28 -8 28 -33 0 -25 -4 -30 -27 -33 l-28 -3 0 -140 0 -139 -30 0 -30 0 0 -70
c0 -68 -1 -70 -25 -70 -23 0 -24 -3 -27 -67 -3 -65 -4 -68 -28 -68 -21 0 -26
-6 -28 -33 -3 -26 -7 -32 -28 -32 -21 0 -24 -5 -24 -35 0 -32 -2 -35 -30 -35
-28 0 -30 -3 -30 -34 0 -30 -3 -35 -27 -38 -25 -3 -28 -7 -25 -35 3 -31 1 -33
-27 -33 -29 0 -31 -3 -31 -35 0 -32 -2 -35 -30 -35 -28 0 -30 -3 -30 -35 0
-31 -3 -35 -25 -35 -22 0 -25 -4 -25 -35 l0 -35 -55 0 -55 0 0 -35 c0 -32 -2
-35 -30 -35 -28 0 -30 -3 -30 -35 l0 -35 -83 0 -82 0 0 -32 0 -33 -57 -3 -58
-3 0 -34 0 -35 -80 0 -80 0 0 -35 0 -35 -85 0 -85 0 0 -35 0 -35 -85 0 -85 0
0 -35 0 -35 -134 0 -135 0 -3 -32 -3 -33 -167 -3 -168 -2 0 -30 0 -30 195 0
195 0 0 35 0 35 140 0 140 0 0 36 0 36 80 -4 79 -3 3 35 3 35 83 0 82 0 0 32
0 32 83 3 82 3 3 33 c3 32 4 32 58 32 l54 0 0 35 0 34 83 3 82 3 -3 33 c-3 30
-1 32 27 32 29 0 31 3 31 35 l0 35 55 0 55 0 0 35 c0 32 2 35 30 35 28 0 30 3
30 35 0 31 3 35 25 35 22 0 25 4 25 35 0 32 2 35 30 35 28 0 30 3 30 35 0 31
3 35 25 35 22 0 25 4 25 35 0 32 2 35 30 35 28 0 30 3 30 35 0 32 2 35 31 35
23 0 30 4 28 18 -4 42 1 52 26 52 24 0 25 2 25 70 l0 70 30 0 30 0 0 70 c0 68
1 70 25 70 l25 0 0 100 0 100 30 0 30 0 0 140 0 140 -30 0 c-28 0 -30 3 -30
35 l0 35 -80 0 c-83 0 -84 0 -82 48 l1 22 -194 0 -195 0 0 -35z"/>
<path d="M4588 9828 c-2 -28 -8 -34 -30 -36 l-28 -3 0 -105 0 -104 -30 0 -31
0 3 -67 c3 -65 4 -68 28 -68 24 0 25 3 28 68 3 64 4 67 27 67 24 0 25 2 25 70
l0 70 30 0 30 0 0 70 c0 68 -1 70 -24 70 -21 0 -25 -6 -28 -32z"/>
<path d="M3030 9685 l0 -35 -55 0 -55 0 0 -35 0 -35 -54 0 c-54 0 -55 0 -58
-32 l-3 -33 -82 -3 -83 -3 0 -34 c0 -32 -2 -35 -30 -35 -28 0 -30 -3 -30 -35
l0 -35 -55 0 -55 0 0 -35 c0 -30 -3 -35 -24 -35 -21 0 -25 -6 -28 -32 -3 -33
-4 -33 -56 -33 -52 0 -52 0 -52 -31 0 -33 -18 -48 -45 -38 -12 5 -15 -2 -15
-29 0 -31 -3 -36 -27 -39 -25 -3 -28 -7 -25 -35 3 -31 1 -33 -27 -33 -29 0
-31 -3 -31 -35 0 -32 -2 -35 -30 -35 -28 0 -30 -3 -30 -35 0 -31 -3 -35 -25
-35 -22 0 -25 -4 -25 -35 0 -32 -2 -35 -30 -35 -28 0 -30 -3 -30 -35 0 -31 -3
-35 -25 -35 -24 0 -25 -2 -25 -70 l0 -70 -30 0 c-28 0 -30 -3 -30 -35 0 -30
-3 -35 -25 -35 -23 0 -24 -3 -27 -67 -3 -66 -4 -68 -30 -71 l-28 -3 0 -175 0
-174 -54 0 c-54 0 -55 0 -58 -32 -3 -32 -4 -33 -53 -33 -49 0 -50 0 -55 -35
-4 -29 -9 -35 -30 -35 -21 0 -26 -5 -28 -32 -3 -27 -7 -33 -28 -33 -21 0 -24
-5 -24 -35 0 -32 -2 -35 -30 -35 -28 0 -30 -3 -30 -35 l0 -35 -55 0 -55 0 0
-35 c0 -32 -2 -35 -31 -35 -25 0 -30 -4 -29 -22 4 -41 0 -48 -25 -48 -22 0
-25 -4 -25 -35 0 -32 -2 -35 -30 -35 -28 0 -30 -3 -30 -35 0 -31 -3 -35 -25
-35 -24 0 -25 -2 -25 -70 l0 -70 -30 0 c-28 0 -30 -3 -30 -35 0 -30 -3 -35
-25 -35 -23 0 -24 -3 -27 -67 -3 -66 -4 -68 -30 -71 -28 -3 -28 -4 -28 -73 0
-67 -1 -69 -25 -69 -23 0 -24 -3 -27 -67 -3 -66 -4 -68 -30 -71 -27 -3 -28 -5
-28 -67 0 -62 -1 -64 -27 -67 l-28 -3 -3 -137 -3 -138 -24 0 -25 0 0 -280 0
-280 28 0 27 0 -3 -65 -4 -65 31 0 31 0 0 100 0 100 -30 0 -30 0 0 210 0 210
30 0 30 0 0 140 0 140 25 0 c23 0 24 3 27 68 3 65 4 67 31 70 27 3 27 4 27 73
0 69 0 69 28 69 27 0 27 0 27 67 l0 68 28 -3 27 -3 0 70 c0 69 0 70 28 73 22
2 28 8 30 36 3 26 7 32 28 32 23 0 24 2 24 70 l0 70 30 0 c28 0 30 3 30 35 0
31 3 35 25 35 22 0 25 4 25 35 0 32 2 35 30 35 28 0 30 3 30 35 0 31 3 35 25
35 22 0 25 4 25 35 l0 35 60 0 c51 0 60 3 58 18 -3 41 2 52 27 52 22 0 25 4
25 35 0 32 2 35 30 35 28 0 30 3 30 35 0 31 3 35 25 35 22 0 25 4 25 35 l0 35
54 0 c54 0 55 0 58 33 3 31 4 32 55 35 50 3 52 4 55 35 l3 32 113 3 112 3 0
29 0 29 -112 3 -113 3 -3 103 -3 102 31 0 30 0 0 69 c0 69 0 70 28 73 22 2 28
8 30 36 3 26 7 32 28 32 23 0 24 2 24 70 l0 70 30 0 c28 0 30 3 30 35 0 31 3
35 25 35 22 0 25 4 25 35 0 32 2 35 30 35 28 0 30 3 30 35 0 31 3 35 25 35 22
0 25 4 25 35 0 32 2 35 30 35 28 0 30 3 30 35 0 30 3 35 24 35 21 0 25 6 28
33 2 27 8 33 31 35 24 3 27 8 27 38 l0 34 55 0 55 0 0 35 c0 32 2 35 30 35 28
0 30 3 30 35 l0 35 55 0 55 0 0 36 c0 33 2 36 25 32 23 -5 25 -2 25 28 0 20 5
34 13 35 6 1 45 1 85 1 l72 0 0 34 0 34 55 0 55 0 0 35 c0 32 2 35 30 35 28 0
30 3 30 35 l0 35 80 0 80 0 0 35 0 35 -80 0 -80 0 0 -35z"/>
<path d="M6030 9615 l0 -35 -140 0 -140 0 0 -35 0 -35 -83 0 -82 0 0 -32 0
-33 -82 -3 -83 -3 0 -34 0 -35 -55 0 -55 0 0 -35 0 -35 -54 0 c-54 0 -55 0
-58 -32 -3 -32 -4 -33 -58 -38 -53 -5 -55 -6 -55 -35 0 -30 -1 -30 -55 -31
-55 -1 -55 -1 -60 -35 -4 -28 -9 -34 -28 -32 -19 2 -22 -2 -22 -32 l0 -35 -55
0 -55 0 0 -35 c0 -32 -2 -35 -30 -35 -28 0 -30 -3 -30 -35 0 -31 -3 -35 -25
-35 -22 0 -25 -4 -25 -35 l0 -34 -57 -3 -58 -3 3 -32 c3 -31 1 -33 -27 -33
-29 0 -31 -3 -31 -35 0 -32 -2 -35 -30 -35 -28 0 -30 -3 -30 -35 0 -31 -3 -35
-25 -35 -22 0 -25 -4 -25 -35 l0 -35 -55 0 -55 0 0 -35 0 -35 -54 0 c-54 0
-55 0 -58 -32 -3 -33 -4 -33 -59 -36 l-57 -3 2 -32 c1 -28 -3 -32 -26 -35 -25
-3 -28 -8 -28 -38 l0 -34 -55 0 -55 0 0 -35 0 -35 -54 0 c-54 0 -55 0 -58 -32
-3 -32 -4 -33 -55 -36 -51 -3 -53 -4 -53 -33 l0 -29 218 0 218 0 -4 35 -4 35
86 0 86 0 0 35 0 35 85 0 85 0 0 35 0 35 85 0 85 0 -6 35 -5 35 85 0 86 0 0
35 0 35 55 0 55 0 0 36 0 36 55 -4 54 -3 3 35 3 35 55 1 55 1 0 34 0 33 58 -1
57 -1 0 37 0 36 55 -3 55 -4 0 36 0 36 55 0 55 0 0 35 0 35 55 0 55 0 1 48 c1
26 1 51 0 55 -1 5 3 6 8 2 6 -3 8 -12 4 -20 -4 -11 2 -15 22 -15 25 0 27 3 23
35 l-4 35 59 0 59 0 -4 35 c-4 33 -2 35 24 35 25 0 28 3 28 35 l0 35 55 0 55
0 0 38 c0 37 1 38 30 34 29 -4 30 -3 30 32 l0 36 55 0 55 0 0 35 c0 32 2 35
30 35 27 0 30 3 27 25 -1 13 -6 27 -10 31 -15 15 -6 20 28 16 34 -4 35 -3 35
32 0 33 2 36 30 36 l30 0 0 65 0 65 -30 0 c-28 0 -30 3 -30 35 l0 35 -80 0
-80 0 0 -35z m-502 -749 c-2 -17 -7 -22 -17 -18 -10 4 -11 7 -3 10 7 2 12 10
12 18 0 8 2 14 5 14 3 0 4 -11 3 -24z"/>
<path d="M4420 9375 l0 -65 80 0 80 0 0 30 c0 30 -1 30 -55 30 l-55 0 0 35 c0
31 -3 35 -25 35 -24 0 -25 -2 -25 -65z"/>
<path d="M4310 9270 c0 -30 1 -30 55 -30 54 0 55 0 55 30 0 30 -1 30 -55 30
-54 0 -55 0 -55 -30z"/>
<path d="M4198 9198 c-3 -33 -4 -33 -57 -34 l-55 -1 0 -34 -1 -34 -55 0 c-55
0 -55 0 -58 -33 -3 -26 -7 -32 -28 -32 -21 0 -24 -5 -24 -35 l0 -35 -55 0 -55
0 0 -35 0 -35 -55 0 -55 0 0 -35 c0 -32 -2 -35 -30 -35 -28 0 -30 -3 -30 -34
0 -30 -3 -35 -27 -38 -25 -3 -28 -7 -25 -35 l4 -33 -61 0 -61 0 0 -35 c0 -31
-3 -35 -25 -35 -22 0 -25 -4 -25 -35 0 -32 -2 -35 -30 -35 -28 0 -30 -3 -30
-35 0 -31 -3 -35 -25 -35 -22 0 -25 -4 -25 -36 l0 -35 53 3 c51 3 52 4 55 36
3 26 7 32 28 32 21 0 24 5 24 35 0 32 2 35 30 35 28 0 30 3 30 35 l0 35 55 0
55 0 0 35 c0 31 3 35 25 35 22 0 25 4 25 35 0 32 2 35 30 35 28 0 30 3 30 35
l0 35 55 0 55 0 0 35 0 35 55 0 55 0 0 35 c0 32 2 35 30 35 28 0 30 3 30 35
l0 35 55 0 55 0 0 35 0 35 55 0 55 0 0 35 c0 32 3 35 28 35 23 0 27 4 27 30 0
29 -1 30 -52 30 -51 0 -52 0 -55 -32z"/>
<path d="M3250 8365 c0 -32 -3 -35 -28 -35 -24 0 -27 -4 -27 -32 0 -29 -4 -33
-27 -36 -25 -3 -28 -8 -28 -38 0 -31 -3 -34 -28 -34 -28 0 -28 0 -27 -65 0
-64 0 -65 28 -65 24 0 27 3 27 36 0 33 2 36 24 32 22 -5 25 -1 28 31 3 31 7
36 28 36 21 0 26 6 28 32 3 25 8 32 28 35 13 2 24 6 24 11 0 4 0 34 0 67 0 57
-1 60 -25 60 -22 0 -25 -4 -25 -35z"/>
<path d="M2030 8020 c0 -25 4 -30 25 -30 21 0 25 5 25 30 0 25 -4 30 -25 30
-21 0 -25 -5 -25 -30z"/>
<path d="M3030 8020 c0 -25 4 -30 25 -30 21 0 25 5 25 30 0 25 -4 30 -25 30
-21 0 -25 -5 -25 -30z"/>
<path d="M3530 8020 l0 -30 80 0 80 0 0 30 0 30 -80 0 -80 0 0 -30z"/>
<path d="M3470 7950 c0 -27 3 -30 30 -30 27 0 30 3 30 30 0 27 -3 30 -30 30
-27 0 -30 -3 -30 -30z"/>
<path d="M4028 7948 l-3 -33 -135 -2 -135 -1 -3 -31 c-3 -30 -4 -31 -58 -31
l-54 0 0 -34 c0 -30 -4 -35 -26 -38 -22 -2 -27 -9 -29 -35 -2 -30 0 -33 26
-33 26 0 29 3 29 35 l0 35 55 0 55 0 0 35 0 35 55 0 55 0 0 -35 0 -35 85 0 85
0 0 -35 0 -35 55 0 55 0 0 -35 0 -35 55 0 55 0 0 -35 c0 -32 2 -35 30 -35 28
0 30 -3 30 -35 0 -31 3 -35 25 -35 22 0 25 -4 25 -35 0 -32 2 -35 30 -35 28 0
30 -3 30 -35 0 -31 3 -35 25 -35 22 0 25 -4 25 -35 0 -32 2 -35 30 -35 28 0
30 -3 30 -35 0 -32 2 -35 31 -35 28 0 30 -2 27 -32 -3 -29 0 -33 25 -36 24 -3
27 -8 27 -38 0 -30 3 -34 25 -34 22 0 25 4 25 35 0 31 -3 35 -25 35 -24 0 -25
2 -25 70 l0 70 -30 0 c-28 0 -30 3 -30 35 0 31 -3 35 -25 35 -22 0 -25 4 -25
35 0 32 -2 35 -30 35 -28 0 -30 3 -30 35 0 31 -3 35 -25 35 -22 0 -25 4 -25
35 0 32 -2 35 -30 35 -28 0 -30 3 -30 35 l0 35 -55 0 -55 0 0 35 c0 32 -2 35
-30 35 -28 0 -30 3 -30 35 l0 35 -80 0 -80 0 0 35 c0 30 3 35 24 35 21 0 25 6
28 33 l3 32 138 3 137 3 0 29 0 30 -164 0 -165 0 -3 -32z"/>
<path d="M4700 7011 c0 -67 0 -68 25 -63 24 4 25 8 25 68 0 62 -1 64 -25 64
-24 0 -25 -2 -25 -69z"/>
<path d="M4750 6910 c0 -25 4 -30 24 -30 19 0 25 6 28 30 4 27 2 30 -24 30
-24 0 -28 -4 -28 -30z"/>
<path d="M4810 6840 c0 -25 4 -30 25 -30 21 0 25 5 25 30 0 25 -4 30 -25 30
-21 0 -25 -5 -25 -30z"/>
<path d="M4913 6802 c-51 -3 -53 -4 -53 -33 0 -26 3 -29 30 -29 28 0 30 -3 30
-35 0 -31 3 -35 25 -35 22 0 25 -4 25 -35 0 -32 2 -35 30 -35 28 0 30 -3 30
-35 l0 -35 55 0 55 0 0 -70 c0 -68 1 -70 25 -70 24 0 25 2 25 70 0 68 -1 70
-25 70 -22 0 -25 4 -25 35 l0 35 -55 0 -55 0 0 35 0 35 55 0 c54 0 55 0 55 30
l0 30 -67 2 c-38 0 -75 1 -83 2 -9 1 -17 14 -20 36 l-5 35 -52 -3z"/>
<path d="M5163 6803 c-18 -3 -23 -11 -23 -34 0 -24 4 -29 25 -29 22 0 25 4 25
35 0 19 -1 34 -2 34 -2 -1 -13 -4 -25 -6z"/>
<path d="M2360 6764 c0 -33 -2 -36 -25 -32 -25 5 -25 4 -25 -63 0 -67 1 -69
25 -69 22 0 25 4 25 35 0 32 2 35 30 35 28 0 30 3 30 35 l0 35 110 0 110 0 0
30 0 30 -140 0 -140 0 0 -36z"/>
<path d="M2663 6733 c-18 -3 -23 -11 -23 -34 0 -24 4 -29 25 -29 22 0 25 4 25
35 0 19 -1 34 -2 34 -2 -1 -13 -4 -25 -6z"/>
<path d="M970 6355 c0 -31 -3 -35 -25 -35 -22 0 -25 -4 -25 -35 0 -31 3 -35
25 -35 22 0 25 4 25 35 l0 35 110 0 110 0 0 35 0 35 -110 0 -110 0 0 -35z"/>
<path d="M3140 6355 c0 -32 -2 -35 -30 -35 -24 0 -29 -4 -28 -22 2 -42 -2 -48
-27 -48 -22 0 -25 -4 -25 -35 0 -32 -2 -35 -30 -35 -28 0 -30 3 -30 35 l0 35
-55 0 -55 0 0 35 0 35 -110 0 -110 0 0 -35 0 -35 -55 0 -55 0 0 -35 c0 -32 -2
-35 -30 -35 -28 0 -30 -3 -30 -35 0 -31 -3 -35 -25 -35 -22 0 -25 -4 -25 -35
0 -32 -2 -35 -30 -35 l-30 0 0 -105 0 -105 30 0 30 0 0 -135 0 -135 134 0 135
0 3 33 c3 31 4 32 58 37 53 5 55 6 55 35 0 30 1 30 55 31 51 1 55 3 55 25 0
41 13 51 64 47 45 -2 46 -2 49 30 3 32 4 32 58 32 l54 0 0 140 0 140 25 0 c22
0 25 4 25 35 0 31 -3 35 -25 35 -22 0 -25 -4 -25 -35 l0 -35 -55 0 -55 0 0 35
c0 31 3 35 25 35 22 0 25 4 25 35 0 32 2 35 30 35 28 0 30 3 30 35 0 31 3 35
25 35 22 0 25 4 25 35 0 31 -3 35 -25 35 -22 0 -25 -4 -25 -35z m-280 -140 l0
-35 55 0 55 0 0 -35 c0 -32 2 -35 30 -35 28 0 30 -3 30 -35 0 -32 3 -35 28
-35 28 0 29 -2 31 -51 2 -70 -5 -89 -35 -89 -21 0 -24 -5 -24 -35 0 -32 -2
-35 -30 -35 -28 0 -30 3 -30 35 l0 35 -55 0 -55 0 0 70 0 70 -30 0 c-28 0 -30
3 -30 35 0 31 -3 35 -25 35 -22 0 -25 4 -25 35 0 32 -2 35 -30 35 -28 0 -30 3
-30 35 l0 35 85 0 85 0 0 -35z m-313 -381 c-3 -3 -12 -4 -19 -1 -8 3 -5 6 6 6
11 1 17 -2 13 -5z m81 -1 c-10 -2 -26 -2 -35 0 -10 3 -2 5 17 5 19 0 27 -2 18
-5z"/>
<path d="M5030 6355 c0 -31 3 -35 25 -35 22 0 25 4 25 35 0 31 -3 35 -25 35
-22 0 -25 -4 -25 -35z"/>
<path d="M5200 6320 l0 -70 -30 0 c-28 0 -30 3 -30 36 0 32 -2 35 -26 32 -22
-2 -27 -9 -29 -35 -2 -30 0 -33 26 -33 l29 0 0 -239 0 -239 25 -4 25 -5 0 208
0 209 30 0 30 0 0 105 0 105 -25 0 c-24 0 -25 -2 -25 -70z"/>
<path d="M1198 6290 c-5 -36 -2 -40 29 -40 20 0 23 5 23 35 0 30 -3 35 -24 35
-19 0 -25 -6 -28 -30z"/>
<path d="M860 6215 c0 -32 2 -35 31 -35 24 0 30 3 25 16 -3 9 -6 24 -6 35 0
14 -7 19 -25 19 -22 0 -25 -4 -25 -35z"/>
<path d="M3200 6215 c0 -31 3 -35 25 -35 22 0 25 4 25 35 0 31 -3 35 -25 35
-22 0 -25 -4 -25 -35z"/>
<path d="M3750 6146 c0 -32 -3 -36 -25 -36 -22 0 -25 -4 -25 -35 0 -31 3 -35
25 -35 22 0 25 4 25 34 0 30 4 35 27 38 23 2 27 8 27 33 0 25 -4 31 -27 33
-25 3 -27 1 -27 -32z"/>
<path d="M3584 6018 c3 -13 6 -29 6 -35 0 -9 17 -13 50 -13 l50 0 0 35 0 35
-56 0 c-54 0 -56 -1 -50 -22z"/>
<path d="M3470 5935 l0 -35 -55 0 -55 0 0 -35 0 -35 -55 0 -55 0 0 -35 c0 -32
-3 -35 -28 -35 -24 0 -27 -4 -27 -32 0 -29 -4 -33 -27 -36 -24 -3 -28 -8 -28
-33 0 -29 1 -29 55 -29 l55 0 0 36 c0 33 2 35 28 32 25 -3 27 -1 24 30 -4 32
2 36 41 33 13 -2 17 5 17 33 l0 36 55 0 55 0 0 35 0 35 55 0 55 0 0 35 0 35
-55 0 -55 0 0 -35z"/>
<path d="M4030 5865 l0 -35 -110 0 -110 0 0 -32 0 -33 107 2 108 1 3 31 c3 25
8 31 28 31 21 0 24 5 24 35 0 31 -3 35 -25 35 -22 0 -25 -4 -25 -35z"/>
<path d="M1140 5725 c0 -32 -2 -35 -30 -35 -28 0 -30 -3 -30 -35 0 -30 -3 -35
-25 -35 -23 0 -24 -3 -27 -67 l-3 -68 -82 -3 -83 -3 0 36 c0 30 -3 35 -24 35
-21 0 -25 -6 -28 -32 -2 -28 -8 -34 -30 -36 -24 -3 -28 -8 -28 -33 0 -29 1
-29 55 -29 l55 0 0 -35 0 -35 -54 0 c-54 0 -55 0 -58 33 -2 17 -9 33 -15 33
-7 1 -31 2 -53 3 -37 1 -40 3 -40 30 0 23 -5 30 -25 33 -30 6 -35 2 -35 -34 0
-24 4 -28 30 -28 28 0 30 -3 30 -35 l0 -35 55 0 55 0 0 -35 0 -35 85 0 85 0 0
-35 c0 -31 3 -35 25 -35 24 0 25 -2 25 -70 0 -68 -1 -70 -25 -70 -22 0 -25 -4
-25 -35 0 -31 3 -35 25 -35 22 0 25 4 25 35 l0 35 55 0 55 0 0 35 c0 30 -3 35
-24 35 -21 0 -25 6 -28 33 -2 27 -8 33 -30 35 -25 3 -28 8 -28 38 l0 34 55 0
55 0 0 -35 c0 -32 2 -35 30 -35 28 0 30 -3 30 -35 l0 -35 140 0 140 0 0 -140
0 -140 25 0 c22 0 25 -4 25 -35 0 -32 2 -35 30 -35 28 0 30 -3 30 -35 l0 -35
135 0 135 0 0 35 0 35 -135 0 -135 0 0 35 c0 32 -2 35 -30 35 l-30 0 0 175 0
175 30 0 c28 0 30 3 30 35 0 31 3 35 25 35 22 0 25 4 25 35 0 32 2 35 30 35
26 0 30 3 30 29 0 28 -2 29 -55 33 l-55 3 0 -33 0 -33 -57 3 c-57 3 -58 4 -58
33 0 19 -5 30 -15 31 -8 0 -21 2 -27 2 -8 1 -13 16 -13 37 0 32 3 35 28 35 25
0 29 4 30 30 1 27 -3 30 -29 30 -26 0 -29 3 -29 34 0 30 -3 35 -27 38 -25 3
-28 7 -28 38 l0 35 56 3 c54 3 56 4 56 32 l0 30 -139 0 -138 0 0 -35z m80
-179 c0 -3 -4 -8 -10 -11 -5 -3 -10 -1 -10 4 0 6 5 11 10 11 6 0 10 -2 10 -4z
m-190 -161 l0 -35 -50 0 c-27 0 -53 -1 -57 -2 -10 -4 -16 39 -9 58 4 10 22 14
61 14 l55 0 0 -35z"/>
<path d="M3585 5731 l0 -30 108 -3 c60 -2 110 -2 111 -1 1 2 1 16 -2 33 l-4
30 -107 0 -106 0 0 -29z"/>
<path d="M5085 5695 c0 -64 0 -65 28 -65 27 0 27 1 27 65 0 64 0 65 -27 65
-28 0 -28 -1 -28 -65z"/>
<path d="M750 5625 c0 -63 1 -65 25 -65 24 0 25 2 25 65 0 63 -1 65 -25 65
-24 0 -25 -2 -25 -65z"/>
<path d="M1420 5660 c0 -30 1 -30 55 -30 54 0 55 0 55 30 0 30 -1 30 -55 30
-54 0 -55 0 -55 -30z"/>
<path d="M3470 5661 c0 -28 2 -29 55 -33 l55 -3 0 33 0 32 -55 0 c-54 0 -55 0
-55 -29z"/>
<path d="M580 5590 c0 -27 3 -30 30 -30 27 0 30 3 30 30 0 27 -3 30 -30 30
-27 0 -30 -3 -30 -30z"/>
<path d="M1530 5590 c0 -25 4 -30 25 -30 21 0 25 5 25 30 0 25 -4 30 -25 30
-21 0 -25 -5 -25 -30z"/>
<path d="M3082 5590 c-1 -27 3 -30 29 -30 26 0 29 3 29 30 0 26 -4 30 -28 30
-25 0 -29 -4 -30 -30z"/>
<path d="M3360 5590 c0 -30 1 -30 55 -30 54 0 55 0 55 30 0 30 -1 30 -55 30
-54 0 -55 0 -55 -30z"/>
<path d="M5030 5585 c0 -32 -2 -35 -30 -35 -28 0 -30 -3 -30 -35 0 -30 -3 -35
-24 -35 -21 0 -25 -6 -28 -32 -2 -28 -7 -33 -28 -33 -24 0 -25 -3 -28 -68 l-3
-67 -54 0 -55 0 0 -35 c0 -31 -3 -35 -25 -35 -22 0 -25 -4 -25 -35 l0 -35 49
0 c49 0 50 1 53 33 2 27 8 33 31 35 24 3 27 8 27 38 0 31 2 34 30 34 28 0 30
3 30 35 0 31 3 35 25 35 22 0 25 4 25 35 0 32 2 35 30 35 28 0 30 3 30 35 0
31 3 35 25 35 24 0 25 2 25 65 0 63 -1 65 -25 65 -22 0 -25 -4 -25 -35z"/>
<path d="M640 5520 c0 -30 1 -30 55 -30 54 0 55 0 55 30 0 30 -1 30 -55 30
-54 0 -55 0 -55 -30z"/>
<path d="M1580 5520 c0 -27 3 -30 30 -30 27 0 30 3 30 30 0 27 -3 30 -30 30
-27 0 -30 -3 -30 -30z"/>
<path d="M1750 5520 l0 -30 220 0 220 0 0 30 0 30 -220 0 -220 0 0 -30z"/>
<path d="M3250 5520 c0 -30 1 -30 55 -30 54 0 55 0 55 30 0 30 -1 30 -55 30
-54 0 -55 0 -55 -30z"/>
<path d="M1640 5450 c0 -30 1 -30 55 -30 54 0 55 0 55 30 0 30 -1 30 -55 30
-54 0 -55 0 -55 -30z"/>
<path d="M2200 5450 c0 -25 4 -30 25 -30 21 0 25 5 25 30 0 25 -4 30 -25 30
-21 0 -25 -5 -25 -30z"/>
<path d="M1864 5411 c-2 -2 -4 -17 -4 -33 0 -27 -1 -28 -55 -28 l-55 0 0 -34
c0 -30 -4 -35 -25 -38 -14 -2 -25 -6 -25 -10 0 -5 0 -35 0 -69 l0 -61 58 4 57
3 -3 -37 -4 -38 81 0 81 0 0 35 c0 32 2 35 30 35 28 0 30 3 30 35 0 31 3 35
25 35 l25 0 0 103 0 102 -106 0 c-58 0 -108 -2 -110 -4z"/>
<path d="M2420 5315 c0 -31 3 -35 25 -35 22 0 25 4 25 35 0 31 -3 35 -25 35
-22 0 -25 -4 -25 -35z"/>
<path d="M3030 5315 c0 -31 3 -35 25 -35 22 0 25 4 25 35 0 31 -3 35 -25 35
-22 0 -25 -4 -25 -35z"/>
<path d="M2477 5273 c-4 -3 -7 -19 -7 -35 0 -27 1 -28 55 -28 l55 0 0 -70 c0
-68 -1 -70 -25 -70 -22 0 -25 -4 -25 -35 l0 -35 -85 0 -85 0 0 -35 0 -35 -165
0 -165 0 0 35 c0 32 -2 35 -30 35 -28 0 -30 -3 -30 -35 l0 -35 -55 0 -55 0 0
-35 c0 -31 -3 -35 -25 -35 -22 0 -25 -4 -25 -35 l0 -35 80 0 80 0 0 -35 0 -35
85 0 85 0 0 -35 0 -35 55 0 55 0 0 35 0 35 55 0 55 0 0 70 0 70 30 0 c28 0 30
3 30 35 l0 35 55 0 55 0 0 35 0 35 55 0 55 0 0 35 c0 31 3 35 25 35 22 0 25 4
25 35 l0 35 140 0 140 0 0 35 c0 32 2 35 31 35 28 0 30 2 27 33 -2 27 -7 32
-28 32 -21 0 -26 -5 -28 -32 l-3 -33 -165 0 -164 0 0 35 0 35 -78 0 c-43 0
-82 -3 -85 -7z"/>
<path d="M4588 5135 c-2 -3 -3 -18 0 -35 4 -29 6 -30 53 -30 l49 0 0 35 0 35
-48 0 c-27 0 -51 -2 -54 -5z"/>
<path d="M5310 5105 l0 -35 190 0 190 0 0 35 0 35 -190 0 -190 0 0 -35z"/>
<path d="M4470 5035 l0 -35 -55 0 -55 0 0 -35 0 -35 -55 0 -55 0 0 -35 0 -35
-55 0 -55 0 0 -35 0 -35 -55 0 -55 0 0 -35 c0 -32 -2 -35 -30 -35 -28 0 -30
-3 -30 -35 0 -31 -3 -35 -25 -35 -22 0 -25 -4 -25 -35 0 -31 3 -35 25 -35 22
0 25 4 25 35 0 32 2 35 30 35 28 0 30 3 30 35 l0 35 80 0 80 0 0 35 0 35 85 0
85 0 0 35 0 35 85 0 85 0 0 35 0 35 133 0 c74 0 136 2 139 5 2 3 3 18 0 35
l-4 30 -109 0 -109 0 0 35 0 35 -55 0 -55 0 0 -35z"/>
<path d="M4810 5035 l0 -35 251 0 c225 0 251 2 245 16 -3 9 -6 24 -6 35 0 18
-10 19 -245 19 l-245 0 0 -35z"/>
<path d="M5700 5035 l0 -35 165 0 165 0 0 -35 0 -35 80 0 80 0 0 35 0 35 -55
0 -55 0 0 35 0 35 -190 0 -190 0 0 -35z"/>
<path d="M860 4965 c0 -31 -3 -35 -25 -35 -24 0 -24 -1 -27 -102 l-3 -103 -82
-3 -83 -3 0 -34 c0 -32 -2 -35 -31 -35 -28 0 -30 -2 -27 -32 2 -28 8 -34 31
-36 25 -3 27 -1 27 32 l0 36 85 0 85 0 0 -35 c0 -31 3 -35 25 -35 22 0 25 -4
25 -35 0 -31 3 -35 25 -33 24 2 25 5 25 70 l0 67 58 3 c56 3 57 3 60 36 l3 32
-85 0 -86 0 0 105 c0 103 0 105 23 105 31 0 34 4 29 40 -3 24 -9 30 -28 30
-21 0 -24 -5 -24 -35z"/>
<path d="M6200 4895 l0 -35 55 0 55 0 0 -35 c0 -31 3 -35 25 -35 24 0 25 -2
25 -70 0 -68 -1 -70 -25 -70 -22 0 -25 -4 -25 -35 0 -31 3 -35 25 -35 22 0 25
-4 25 -35 l0 -35 -55 0 -55 0 0 35 c0 31 -3 35 -25 35 -22 0 -25 -4 -25 -35 0
-31 3 -35 25 -35 21 0 25 -5 25 -29 0 -25 4 -30 28 -33 27 -3 27 -4 27 -73 0
-69 -1 -70 -27 -73 -22 -3 -27 -9 -30 -35 -3 -32 -4 -32 -63 -35 -88 -5 -105
2 -105 41 l0 32 -329 -3 -330 -3 -3 -32 -3 -32 -105 0 -105 0 -5 -35 -5 -35
-82 2 -83 1 0 -34 0 -34 -55 0 -55 0 0 -35 0 -35 -55 0 -55 0 0 -35 0 -35 80
0 80 0 0 -35 c0 -32 2 -35 30 -35 28 0 30 -3 30 -35 l0 -35 55 0 55 0 0 -35 0
-35 110 0 110 0 0 -35 0 -35 140 0 140 0 0 -35 0 -35 110 0 110 0 0 -35 0 -35
140 0 140 0 0 -35 0 -35 55 0 55 0 0 -36 c0 -32 2 -35 27 -32 22 2 27 8 29 36
2 29 0 32 -27 32 l-29 0 0 69 c0 69 0 70 28 73 23 3 27 8 27 33 0 25 4 30 28
33 24 3 27 8 27 38 l0 34 140 0 140 0 0 -35 c0 -31 3 -35 25 -35 22 0 25 4 25
35 0 31 -3 35 -25 35 -22 0 -25 4 -25 35 l0 35 -140 0 -140 0 0 -35 0 -35 -55
0 -55 0 0 -70 c0 -68 -1 -70 -25 -70 -22 0 -25 -4 -25 -35 0 -32 -2 -35 -30
-35 -28 0 -30 3 -30 35 l0 35 -110 0 -110 0 0 35 0 35 -140 0 -140 0 0 35 0
35 -110 0 -110 0 0 35 0 35 -115 0 -115 0 0 35 0 35 -55 0 -55 0 0 35 c0 31
-3 35 -25 35 -22 0 -25 4 -25 35 0 31 3 35 25 35 22 0 25 4 25 35 l0 35 85 0
85 0 0 35 0 35 110 0 110 0 0 35 0 35 280 0 280 0 0 -35 0 -35 141 0 c132 0
140 1 134 19 -9 28 5 51 31 51 23 0 23 2 26 103 l3 102 28 3 27 3 0 170 0 169
-30 0 c-28 0 -30 3 -30 35 0 31 -3 35 -25 35 -25 0 -30 10 -26 53 2 14 -6 17
-53 17 l-56 0 0 -35z"/>
<path d="M6200 4684 l0 -35 51 3 c50 3 52 4 55 36 l4 32 -55 0 -55 0 0 -36z"/>
<path d="M1140 4615 l0 -35 -55 0 -55 0 0 -35 0 -35 -54 0 c-54 0 -55 0 -58
-32 -2 -28 -8 -34 -30 -36 -25 -3 -28 -8 -28 -39 0 -32 -2 -35 -25 -31 -25 5
-25 4 -25 -63 0 -67 1 -69 25 -69 22 0 25 4 25 35 0 32 3 35 28 35 24 0 27 4
27 33 0 27 4 32 27 35 22 3 27 9 30 35 2 27 8 33 31 35 22 3 27 8 27 31 0 23
5 30 25 33 23 5 25 2 25 -33 0 -35 -3 -39 -25 -39 -21 0 -25 -5 -25 -30 l0
-29 83 -3 82 -3 -3 -32 -2 -33 85 0 85 0 0 -35 0 -35 140 0 140 0 0 -35 0 -35
275 0 275 0 0 33 0 32 -247 0 -248 0 -5 35 -5 35 -135 0 -135 0 3 33 2 32 -85
0 -85 0 0 35 0 35 -55 0 -55 0 0 70 c0 68 1 70 25 70 22 0 25 4 25 35 0 31 -3
35 -25 35 -22 0 -25 -4 -25 -35z"/>
<path d="M530 4545 c0 -31 3 -35 25 -35 22 0 25 4 25 35 0 31 -3 35 -25 35
-22 0 -25 -4 -25 -35z"/>
<path d="M750 4205 c0 -31 3 -35 25 -35 22 0 25 4 25 35 0 31 -3 35 -25 35
-22 0 -25 -4 -25 -35z"/>
<path d="M2198 4133 l-4 -33 113 0 113 0 0 -70 0 -70 -30 0 -30 0 0 -70 c0
-68 -1 -70 -25 -70 -22 0 -25 -4 -25 -35 0 -31 3 -35 25 -35 22 0 25 4 25 35
0 32 2 35 30 35 l30 0 0 -105 0 -105 -30 0 -30 0 0 -70 c0 -68 -1 -70 -25 -70
l-25 0 0 -275 0 -275 25 0 25 0 0 -105 0 -105 30 0 c28 0 30 -3 30 -35 l0 -35
-140 0 -140 0 0 -35 0 -35 -390 0 -390 0 0 35 0 35 -164 0 -165 0 -3 33 -3 32
-107 3 -108 3 0 -36 0 -35 80 0 80 0 0 -35 0 -35 170 0 170 0 0 -35 0 -35 440
0 440 0 0 35 0 35 115 0 115 0 0 -70 c0 -68 1 -70 25 -70 24 0 25 -2 25 -70
l0 -70 30 0 c28 0 30 -3 30 -35 0 -30 3 -35 25 -35 23 0 24 -3 27 -67 l3 -68
53 -1 52 -1 0 34 c0 29 -3 33 -25 33 -22 0 -25 4 -25 35 0 32 -2 35 -30 35
-28 0 -30 3 -30 35 0 31 -3 35 -25 35 l-25 0 0 105 0 105 -30 0 -30 0 0 105
c0 105 0 105 -25 105 -24 0 -24 1 -27 103 l-3 102 -27 3 -28 3 0 274 0 274 28
3 c26 3 27 5 30 71 3 64 4 67 27 67 25 0 25 0 25 105 l0 105 30 0 30 0 0 70 0
70 -30 0 c-28 0 -30 3 -30 35 l0 35 55 0 55 0 0 35 0 35 -79 0 -80 0 -3 33 -3
32 -107 0 -106 0 -4 -32z m272 -243 c0 -68 -1 -70 -25 -70 -24 0 -25 2 -25 70
0 68 1 70 25 70 24 0 25 -2 25 -70z"/>
<path d="M2587 4023 c-4 -3 -7 -19 -7 -35 0 -24 4 -28 30 -28 28 0 30 3 30 35
0 30 -3 35 -23 35 -13 0 -27 -3 -30 -7z"/>
<path d="M4750 3925 c0 -32 3 -35 28 -35 26 0 28 2 24 35 -3 29 -8 35 -28 35
-21 0 -24 -5 -24 -35z"/>
<path d="M2250 3715 l0 -35 -55 0 -55 0 0 -35 0 -35 -55 0 -55 0 0 -35 0 -35
-55 0 -55 0 0 -35 0 -35 -225 0 -225 0 0 35 0 35 -110 0 -110 0 0 35 0 35 -85
0 -85 0 0 35 0 35 -195 0 -195 0 0 -35 0 -35 -55 0 -55 0 0 -35 c0 -31 -3 -35
-25 -35 -22 0 -25 -4 -25 -35 0 -32 -2 -35 -30 -35 -28 0 -30 -3 -30 -35 0
-30 -3 -35 -25 -35 -23 0 -24 -3 -27 -67 -3 -66 -4 -68 -30 -71 l-28 -3 0 -99
0 -99 27 -3 c27 -3 28 -5 31 -70 3 -65 4 -68 27 -68 22 0 25 -5 25 -35 l0 -35
55 0 55 0 0 35 c0 30 -3 35 -24 35 -21 0 -25 6 -28 32 -2 27 -7 33 -28 33 -24
0 -25 3 -28 67 -3 64 -4 67 -30 70 -24 3 -27 7 -27 38 0 31 3 35 28 38 25 3
27 1 27 -32 0 -33 2 -36 30 -36 l30 0 0 65 0 65 -30 0 c-28 0 -30 3 -30 34 0
30 3 35 28 38 22 2 28 8 30 36 3 26 8 32 27 32 19 0 24 -6 27 -32 l3 -33 82
-3 82 -3 3 -31 c2 -24 8 -32 26 -33 19 -1 22 3 22 32 0 29 -3 33 -25 33 -22 0
-25 4 -25 35 l0 35 -55 0 -55 0 0 70 0 70 55 0 55 0 0 35 0 35 164 0 165 0 3
-32 3 -33 83 -3 82 -3 0 -34 0 -35 85 0 85 0 0 -35 0 -35 275 0 275 0 0 35 0
35 55 0 55 0 0 35 0 35 55 0 55 0 0 35 c0 32 2 35 30 35 28 0 30 3 30 35 0 31
3 35 25 35 22 0 25 4 25 35 0 31 -3 35 -25 35 -22 0 -25 -4 -25 -35z"/>
<path d="M6700 3645 l0 -35 80 0 80 0 0 -35 c0 -32 2 -35 30 -35 28 0 30 -3
30 -35 0 -32 3 -35 28 -35 l27 0 -3 -91 c-2 -50 -1 -96 1 -102 3 -8 23 -11 56
-9 49 4 51 5 51 33 0 24 -4 29 -25 29 l-25 0 0 105 0 105 -30 0 c-28 0 -30 3
-30 35 l0 35 -55 0 -55 0 0 35 0 35 -80 0 -80 0 0 -35z"/>
<path d="M6640 3575 c0 -31 -3 -35 -25 -35 -22 0 -25 -4 -25 -35 0 -31 3 -35
25 -35 22 0 25 4 25 35 0 31 3 35 25 35 22 0 25 4 25 35 0 31 -3 35 -25 35
-22 0 -25 -4 -25 -35z"/>
<path d="M3584 3524 c3 -9 6 -24 6 -35 0 -14 7 -19 25 -19 22 0 25 4 25 35 0
32 -2 35 -31 35 -24 0 -30 -3 -25 -16z"/>
<path d="M920 3400 c0 -68 1 -70 24 -70 21 0 25 -6 28 -32 2 -27 7 -33 28 -33
21 0 26 6 28 33 3 30 1 32 -27 32 l-31 0 0 70 c0 68 -1 70 -25 70 -24 0 -25
-2 -25 -70z"/>
<path d="M3530 3435 l0 -35 -55 0 -55 0 0 -35 0 -35 -110 0 -110 0 0 -25 c0
-14 -1 -28 -2 -32 -2 -3 34 -5 80 -4 l82 2 0 -34 0 -35 55 -4 55 -3 0 33 c0
27 -3 32 -25 32 -22 0 -25 4 -25 34 l0 35 53 3 c51 3 52 4 55 36 3 26 7 32 28
32 21 0 24 5 24 35 0 31 -3 35 -25 35 -22 0 -25 -4 -25 -35z"/>
<path d="M3140 3365 c0 -31 3 -35 25 -35 22 0 25 4 25 35 0 31 -3 35 -25 35
-22 0 -25 -4 -25 -35z"/>
<path d="M6310 3365 c0 -31 3 -35 25 -35 24 0 25 -2 25 -64 0 -63 1 -65 28
-68 22 -2 28 -8 30 -35 3 -26 8 -32 30 -35 26 -3 27 -4 26 -70 l-1 -68 28 0
29 0 0 -350 0 -350 -28 0 -27 0 1 -102 c0 -102 1 -103 25 -103 24 0 24 1 27
103 3 101 3 102 27 102 l25 0 0 140 0 140 30 0 c28 0 30 -3 30 -35 l0 -35 55
0 55 0 0 35 0 35 55 0 55 0 0 35 c0 32 2 35 30 35 28 0 30 3 30 35 0 31 3 35
25 35 l25 0 0 105 0 105 55 0 55 0 0 100 0 100 -25 0 c-24 0 -25 -2 -25 -71
l0 -70 -27 3 c-25 3 -28 -1 -31 -29 -3 -27 -7 -33 -28 -33 -24 0 -24 0 -24
-105 l0 -105 -55 0 -55 0 0 -35 c0 -32 -2 -35 -30 -35 -28 0 -30 -3 -30 -35
l0 -35 -55 0 -55 0 0 35 c0 32 -2 35 -30 35 l-30 0 0 205 0 205 -25 0 c-24 0
-25 2 -25 69 0 69 0 70 -27 73 -23 2 -29 8 -31 36 -3 26 -7 32 -28 32 -23 0
-24 2 -24 70 l0 70 -55 0 -55 0 0 -35z"/>
<path d="M2530 3294 c0 -31 3 -35 23 -32 18 2 23 -3 27 -30 3 -18 8 -33 13
-32 4 0 16 0 27 0 16 0 20 7 20 30 0 27 -3 30 -30 30 -28 0 -30 3 -30 35 0 31
-3 35 -25 35 -22 0 -25 -4 -25 -36z"/>
<path d="M2862 3298 c2 -27 7 -33 27 -32 19 0 24 5 27 32 4 30 2 32 -27 32
-28 0 -30 -2 -27 -32z"/>
<path d="M810 3226 c0 -30 2 -33 25 -28 20 3 25 10 25 33 0 24 -4 29 -25 29
-22 0 -25 -4 -25 -34z"/>
<path d="M1030 3228 l0 -33 52 1 c52 1 53 2 56 33 l3 31 -55 0 -56 0 0 -32z"/>
<path d="M2920 3226 c0 -30 2 -33 25 -28 20 3 25 10 25 33 0 24 -4 29 -25 29
-22 0 -25 -4 -25 -34z"/>
<path d="M6920 3231 c0 -23 5 -30 25 -33 23 -5 25 -2 25 28 0 30 -3 34 -25 34
-21 0 -25 -5 -25 -29z"/>
<path d="M7090 3195 c0 -63 1 -65 25 -65 24 0 25 2 25 65 0 63 -1 65 -25 65
-24 0 -25 -2 -25 -65z"/>
<path d="M2640 3160 c0 -30 1 -30 55 -30 54 0 55 0 55 30 0 30 -1 30 -55 30
-54 0 -55 0 -55 -30z"/>
<path d="M2970 3155 l0 -35 -110 0 -110 0 0 -30 0 -30 140 0 140 0 0 35 0 35
165 0 165 0 0 30 0 30 -195 0 -195 0 0 -35z"/>
<path d="M6860 3160 c0 -27 3 -30 30 -30 27 0 30 3 30 30 0 27 -3 30 -30 30
-27 0 -30 -3 -30 -30z"/>
<path d="M530 3090 c0 -30 1 -30 55 -30 54 0 55 0 55 30 0 30 -1 30 -55 30
-54 0 -55 0 -55 -30z"/>
<path d="M2470 3090 c0 -27 3 -30 30 -30 27 0 30 3 30 30 0 27 -3 30 -30 30
-27 0 -30 -3 -30 -30z"/>
<path d="M640 3020 c0 -25 4 -30 25 -30 21 0 25 5 25 30 0 25 -4 30 -25 30
-21 0 -25 -5 -25 -30z"/>
<path d="M2420 2985 c0 -63 1 -65 25 -65 24 0 25 2 25 65 0 63 -1 65 -25 65
-24 0 -25 -2 -25 -65z"/>
<path d="M587 2843 c-4 -3 -7 -19 -7 -35 0 -24 4 -28 30 -28 28 0 30 -3 30
-35 l0 -35 80 0 80 0 0 35 0 35 -55 0 -55 0 0 35 0 35 -48 0 c-27 0 -52 -3
-55 -7z"/>
<path d="M4470 2325 c0 -31 -3 -35 -25 -35 -22 0 -25 -4 -25 -35 0 -32 -2 -35
-30 -35 l-31 0 3 -67 c3 -65 4 -68 28 -68 24 0 25 3 28 68 3 64 4 67 27 67 22
0 25 5 25 35 0 32 2 35 30 35 28 0 30 3 30 35 0 32 -2 35 -30 35 -28 0 -30 -3
-30 -35z"/>
<path d="M2698 2048 c-2 -28 -8 -34 -30 -36 -25 -3 -28 -8 -28 -38 0 -31 -2
-34 -30 -34 l-30 0 0 -65 0 -65 30 0 c28 0 30 3 30 35 0 30 3 35 24 35 21 0
25 6 28 33 3 31 4 32 54 35 49 3 52 5 56 32 4 27 2 30 -24 30 -25 0 -28 3 -28
35 0 30 -3 35 -24 35 -21 0 -25 -6 -28 -32z"/>
<path d="M4310 2015 c0 -63 1 -65 25 -65 24 0 25 2 25 65 0 63 -1 65 -25 65
-24 0 -25 -2 -25 -65z"/>
<path d="M6420 2016 c0 -60 1 -64 25 -68 25 -5 25 -4 25 63 0 67 -1 69 -25 69
-24 0 -25 -2 -25 -64z"/>
<path d="M2810 1910 c0 -25 4 -30 25 -30 22 0 25 -4 25 -35 l0 -35 55 0 55 0
0 -35 0 -34 58 -3 57 -3 -1 -32 -2 -33 84 0 84 0 0 -35 0 -35 110 0 110 0 0
-35 0 -35 335 0 335 0 0 35 0 35 55 0 55 0 0 -70 0 -70 -55 0 -55 0 0 -34 c0
-30 -3 -35 -27 -38 -16 -2 -27 -6 -25 -10 1 -5 2 -35 2 -68 0 -57 1 -60 25
-60 22 0 25 -4 25 -35 0 -31 3 -35 25 -35 22 0 25 4 25 35 0 31 -3 35 -25 35
-22 0 -25 4 -25 35 0 31 3 35 25 35 22 0 25 4 25 35 l0 35 85 0 85 0 0 -70 0
-70 30 0 30 0 0 -70 c0 -68 1 -70 25 -70 22 0 25 -4 25 -35 l0 -35 54 0 c54 0
55 0 58 -32 2 -28 8 -34 31 -36 24 -3 27 -8 27 -38 l0 -34 195 0 195 0 0 -32
0 -33 107 0 108 0 3 -102 c3 -101 3 -103 27 -103 20 0 24 6 27 33 2 27 8 33
31 35 22 3 27 8 27 32 0 24 -5 29 -27 32 -27 3 -28 5 -28 68 l0 65 113 3 112
3 0 -33 0 -33 80 0 80 0 0 33 c0 29 3 32 30 32 28 0 30 3 30 34 0 30 3 35 27
38 23 2 27 8 28 33 0 25 4 31 28 33 27 3 27 4 27 73 l0 69 30 0 c28 0 30 3 30
35 l0 35 55 0 55 0 0 70 c0 68 1 70 25 70 22 0 25 4 25 35 0 32 2 35 30 35 28
0 30 3 30 35 0 32 3 35 28 35 24 0 27 4 27 33 0 28 4 32 28 35 24 3 27 8 27
38 0 31 2 34 31 34 27 0 31 3 26 21 -8 31 2 49 29 49 l24 0 0 -140 0 -140 -25
0 c-24 0 -25 -2 -25 -70 0 -68 1 -70 25 -70 24 0 25 2 25 70 l0 70 30 0 30 0
0 140 0 140 25 0 c24 0 25 2 25 69 0 67 0 68 -25 63 -23 -4 -25 -1 -25 32 0
33 -2 36 -30 36 -28 0 -30 -3 -30 -35 0 -30 -3 -35 -24 -35 -21 0 -25 -6 -28
-32 -2 -28 -8 -34 -30 -36 -25 -3 -28 -8 -28 -39 0 -32 -2 -35 -25 -31 -23 5
-25 2 -25 -28 0 -31 -3 -34 -30 -34 -28 0 -30 -3 -30 -34 0 -30 -3 -35 -27
-38 -25 -3 -28 -7 -25 -35 3 -31 1 -33 -27 -33 -29 0 -31 -3 -31 -34 0 -30 -3
-35 -27 -38 -27 -3 -28 -5 -31 -70 -3 -65 -4 -68 -27 -68 -22 0 -25 -5 -25
-35 0 -32 -2 -35 -30 -35 -28 0 -30 -3 -30 -35 l0 -35 -55 0 -55 0 0 -35 0
-35 -55 0 -55 0 0 -35 0 -35 -55 0 -55 0 0 -35 0 -35 -110 0 -110 0 0 -35 0
-35 -140 0 -140 0 0 35 0 35 -170 0 -170 0 0 35 c0 31 -3 35 -25 35 -22 0 -25
4 -25 35 l0 35 -55 0 -55 0 0 35 c0 32 -2 35 -30 35 l-30 0 0 70 c0 68 -1 70
-25 70 -22 0 -25 4 -25 35 0 32 -2 35 -30 35 -28 0 -30 3 -30 35 0 32 -2 35
-30 35 l-31 0 3 240 3 240 -27 0 -28 0 0 -135 0 -135 -55 0 -55 0 0 -35 0 -35
-304 0 -305 0 -3 33 -3 32 -113 3 -113 3 3 31 3 31 -80 1 -80 1 -5 35 -5 34
-52 -3 -53 -2 0 35 0 36 -54 0 c-57 0 -75 15 -60 54 5 14 -2 16 -50 16 -56 0
-56 0 -56 -30z m2784 -956 c3 -8 2 -12 -4 -9 -6 3 -10 10 -10 16 0 14 7 11 14
-7z"/>
<path d="M2530 1599 l0 -209 25 0 c24 0 25 -2 25 -70 l0 -70 -55 0 -55 0 0
-35 c0 -31 -3 -35 -25 -35 -22 0 -25 -4 -25 -35 l0 -35 -55 0 -55 0 0 -35 c0
-31 3 -35 25 -35 22 0 25 -4 25 -35 0 -32 2 -35 30 -35 28 0 30 -3 30 -35 l0
-35 55 0 55 0 0 -33 0 -32 53 1 c50 2 52 3 55 33 l3 30 82 3 82 3 -3 33 c-3
30 -1 32 27 32 29 0 31 3 31 35 l0 35 85 0 85 0 0 -35 0 -35 360 0 360 0 0 35
0 35 55 0 55 0 0 35 0 35 85 0 85 0 0 35 c0 31 3 35 25 35 22 0 25 4 25 35 0
31 -3 35 -25 35 -22 0 -25 -4 -25 -35 l0 -35 -85 0 -85 0 0 -35 0 -35 -55 0
-55 0 0 -35 0 -35 -360 0 -360 0 0 35 0 34 -57 3 -58 3 3 33 2 32 -85 0 -85 0
0 35 c0 32 -2 35 -30 35 -28 0 -30 3 -30 35 0 31 -3 35 -25 35 -22 0 -25 4
-25 35 0 32 -2 35 -30 35 l-30 0 0 204 0 204 -25 4 -25 5 0 -208z"/>
<path d="M6479 1738 c0 -2 -2 -33 -3 -70 l-3 -68 28 0 29 0 0 -69 c0 -69 0
-70 -27 -73 -24 -3 -28 -8 -28 -33 0 -25 -4 -30 -27 -33 -28 -3 -28 -4 -28
-73 l0 -69 -30 0 -30 0 0 -70 c0 -69 0 -70 -26 -70 -24 0 -26 -3 -23 -38 4
-37 4 -37 -28 -34 l-33 4 0 -71 c0 -69 -1 -71 -25 -71 -22 0 -25 -4 -25 -34 0
-19 5 -36 12 -38 9 -3 9 -6 0 -12 -7 -4 -12 -2 -12 3 0 6 -13 11 -30 11 -28 0
-30 -3 -30 -35 0 -32 -3 -35 -28 -35 -24 0 -27 -4 -27 -32 l0 -33 -57 -3 -58
-3 0 -34 c0 -30 -3 -35 -24 -35 -21 0 -25 -6 -28 -32 -2 -28 -8 -34 -30 -36
-24 -3 -28 -8 -28 -36 l0 -33 -52 1 c-53 1 -53 1 -56 -32 l-3 -32 -165 0 -164
0 0 29 c0 34 -12 45 -40 36 -14 -4 -20 -15 -20 -36 0 -26 3 -29 30 -29 28 0
30 -3 30 -35 l0 -35 165 0 165 0 0 34 c0 32 13 46 42 46 6 0 8 -33 6 -84 -2
-46 0 -82 5 -79 4 2 7 22 7 43 0 29 6 43 22 54 47 33 88 14 88 -40 0 -33 -12
-49 -45 -57 -16 -4 -16 -5 5 -6 44 -1 63 22 59 73 -2 24 -2 43 0 41 2 -3 11
-1 20 4 9 5 25 5 36 1 19 -7 18 -9 -7 -19 -25 -9 -28 -15 -27 -58 0 -27 3 -42
6 -35 2 6 16 12 29 12 21 0 24 4 24 38 0 21 5 43 12 50 15 15 48 16 48 2 0 -5
-6 -10 -14 -10 -18 0 -26 -23 -24 -68 1 -36 1 -36 7 8 l6 45 60 6 c33 3 45 6
28 7 -45 3 -42 22 2 22 22 0 38 -6 41 -15 8 -19 34 -19 34 0 0 8 6 15 14 15 8
0 18 9 21 20 4 12 15 20 30 20 20 0 23 5 21 32 -1 29 2 33 27 36 l27 3 0 134
0 134 -27 3 c-25 3 -28 7 -25 36 2 30 0 32 -28 32 -28 0 -30 3 -30 35 l0 34
83 3 82 3 3 33 3 32 80 0 79 0 0 35 0 35 55 0 55 0 0 175 0 175 -25 0 c-22 0
-25 4 -25 35 0 32 -2 35 -30 35 l-30 0 0 70 c0 68 -1 70 -25 70 -23 0 -24 3
-27 68 -3 61 -5 67 -25 70 -13 2 -23 2 -24 0z m-12 -623 c0 -8 -4 -12 -9 -9
-5 3 -6 10 -3 15 9 13 12 11 12 -6z m-277 -545 c0 -5 -5 -10 -11 -10 -5 0 -7
5 -4 10 3 6 8 10 11 10 2 0 4 -4 4 -10z m-190 -64 c0 -3 -4 -8 -10 -11 -5 -3
-10 -1 -10 4 0 6 5 11 10 11 6 0 10 -2 10 -4z m248 -87 c-2 -6 -8 -10 -13 -10
-5 0 -11 4 -13 10 -2 6 4 11 13 11 9 0 15 -5 13 -11z"/>
<path d="M6250 1251 c0 -69 -1 -71 -25 -71 -22 0 -25 -4 -25 -35 0 -31 3 -35
25 -35 22 0 25 4 25 35 0 32 3 35 28 35 27 0 27 0 25 67 -1 65 -2 68 -27 71
-26 3 -26 3 -26 -67z"/>
<path d="M4200 1110 c0 -68 1 -70 25 -70 24 0 25 -2 25 -70 0 -68 -1 -70 -25
-70 -23 0 -24 -3 -27 -67 l-3 -68 -55 -5 c-53 -5 -55 -6 -55 -35 l0 -30 -84
-3 -83 -3 4 -37 3 -37 -87 3 -87 3 -3 -33 -3 -33 -137 -3 -138 -3 0 -33 0 -34
-662 1 -663 2 -3 37 -3 38 640 0 641 0 0 35 0 35 134 0 135 0 3 33 3 32 83 3
82 3 0 35 0 35 83 -2 82 -2 3 38 3 37 55 -4 54 -5 0 69 c0 66 1 68 25 68 22 0
25 4 25 35 0 31 -3 35 -25 35 -22 0 -25 -4 -25 -35 0 -32 -3 -35 -29 -35 -26
0 -29 -3 -27 -32 l1 -33 -57 -3 -58 -3 0 -34 0 -35 -79 0 -80 0 -3 -32 -3 -33
-82 -3 -83 -3 0 -34 0 -35 -140 0 -140 0 0 -35 0 -35 -610 0 -611 0 3 108 c3
104 4 107 26 105 19 -2 22 2 22 32 0 31 -3 35 -25 35 -22 0 -25 -4 -25 -35 0
-32 -2 -35 -30 -35 l-30 0 0 -170 0 -170 30 0 30 0 0 -106 0 -106 34 4 c20 2
33 0 31 -7 -18 -59 -16 -65 15 -65 28 0 30 -3 30 -35 l0 -35 55 0 55 0 0 -35
0 -35 140 0 140 0 0 -35 0 -35 195 0 195 0 0 35 0 35 55 0 55 0 0 35 c0 31 3
35 25 35 l24 0 3 138 3 137 83 3 82 3 0 -36 c0 -32 2 -35 30 -35 28 0 30 -3
30 -35 0 -31 3 -35 25 -35 22 0 25 -4 25 -35 l0 -35 111 0 111 0 -3 38 c-4 37
-4 37 28 34 30 -4 33 -7 33 -38 0 -31 3 -34 30 -34 28 0 30 -3 30 -35 l0 -35
110 0 110 0 0 35 0 35 55 0 55 0 0 35 c0 31 3 35 25 35 22 0 25 4 25 35 0 32
2 35 30 35 l31 0 -3 137 -3 138 -25 0 c-22 0 -25 4 -25 35 0 31 3 35 28 38
l27 3 0 99 0 99 27 3 c26 3 27 5 27 70 1 68 1 68 -26 68 -28 0 -28 0 -28 70 0
68 -1 70 -25 70 -24 0 -25 -2 -25 -70z"/>
<path d="M6140 1040 c0 -70 0 -70 -28 -70 -26 0 -28 -2 -24 -35 3 -29 8 -35
28 -35 21 0 24 5 24 35 0 31 3 35 25 35 24 0 25 2 25 70 0 68 -1 70 -25 70
-24 0 -25 -2 -25 -70z"/>
<path d="M2250 1005 c0 -32 -3 -35 -28 -35 -26 0 -28 -2 -24 -35 3 -29 8 -35
28 -35 21 0 24 5 24 35 0 31 3 35 25 35 22 0 25 4 25 35 0 31 -3 35 -25 35
-22 0 -25 -4 -25 -35z"/>
<path d="M6030 865 c0 -32 -2 -35 -30 -35 -26 0 -30 -3 -30 -29 0 -23 5 -30
25 -33 30 -6 35 -2 35 34 0 26 8 33 38 29 7 -1 12 11 12 34 0 31 -3 35 -25 35
-22 0 -25 -4 -25 -35z"/>
<path d="M5920 730 c0 -25 4 -30 25 -30 21 0 25 5 25 30 0 25 -4 30 -25 30
-21 0 -25 -5 -25 -30z"/>
<path d="M5360 660 c0 -27 3 -30 30 -30 27 0 30 3 30 30 0 27 -3 30 -30 30
-27 0 -30 -3 -30 -30z"/>
<path d="M5810 660 c0 -30 1 -30 55 -30 54 0 55 0 55 30 0 30 -1 30 -55 30
-54 0 -55 0 -55 -30z"/>
<path d="M5310 555 c0 -63 1 -65 25 -65 24 0 25 2 25 65 0 63 -1 65 -25 65
-24 0 -25 -2 -25 -65z"/>
<path d="M5420 590 l0 -30 80 0 80 0 0 30 0 30 -80 0 -80 0 0 -30z"/>
<path d="M5700 590 c0 -30 1 -30 53 -30 51 0 52 0 52 30 0 30 -1 30 -52 30
-52 0 -53 0 -53 -30z"/>
<path d="M5588 520 l-5 -30 57 0 57 0 -5 30 c-4 29 -7 30 -52 30 -45 0 -48 -1
-52 -30z"/>
<path d="M5847 353 c-4 -3 -7 -18 -6 -32 l1 -26 7 25 c4 14 17 27 31 31 l25 7
-26 1 c-14 1 -29 -2 -32 -6z"/>
<path d="M6245 311 c0 -27 3 -47 8 -44 4 2 7 24 7 49 0 24 -3 44 -7 44 -5 0
-8 -22 -8 -49z"/>
<path d="M6300 351 c0 -5 9 -7 20 -4 11 3 20 7 20 9 0 2 -9 4 -20 4 -11 0 -20
-4 -20 -9z"/>
<path d="M6416 344 c-5 -13 -3 -14 6 -7 7 6 20 13 28 16 10 4 8 6 -6 6 -12 1
-25 -6 -28 -15z"/>
<path d="M6543 353 c9 -2 23 -2 30 0 6 3 -1 5 -18 5 -16 0 -22 -2 -12 -5z"/>
<path d="M6654 346 c-3 -8 -4 -23 -1 -33 4 -14 5 -13 6 5 1 13 10 26 24 32
l22 9 -23 0 c-12 1 -25 -5 -28 -13z"/>
<path d="M6772 335 c0 -16 2 -22 5 -12 2 9 2 23 0 30 -3 6 -5 -1 -5 -18z"/>
<path d="M6902 329 c-2 -46 -16 -57 -77 -62 l-50 -3 57 -2 c65 -2 82 14 75 71
-4 32 -4 32 -5 -4z"/>
<path d="M6368 300 c-2 -22 0 -40 4 -40 5 0 8 18 8 40 0 22 -2 40 -4 40 -2 0
-6 -18 -8 -40z"/>
<path d="M6490 327 c0 -13 -9 -17 -41 -17 -22 0 -38 -4 -35 -8 8 -13 77 -1 83
15 3 7 3 17 -1 20 -3 4 -6 -1 -6 -10z"/>
<path d="M6611 319 c-1 -32 -16 -46 -56 -52 -27 -4 -27 -4 7 -6 42 -1 63 23
55 62 -4 19 -4 19 -6 -4z"/>
<path d="M6841 314 c0 -11 3 -14 6 -6 3 7 2 16 -1 19 -3 4 -6 -2 -5 -13z"/>
<path d="M6125 309 c-11 -16 -2 -17 25 -2 24 12 24 13 3 13 -12 0 -25 -5 -28
-11z"/>
<path d="M6726 295 c-9 -14 -26 -26 -39 -26 -16 -1 -17 -3 -5 -6 24 -6 54 12
61 37 7 26 3 25 -17 -5z"/>
<path d="M6138 263 c12 -2 32 -2 45 0 12 2 2 4 -23 4 -25 0 -35 -2 -22 -4z"/>
<path d="M6443 263 c9 -2 25 -2 35 0 9 3 1 5 -18 5 -19 0 -27 -2 -17 -5z"/>
</g>
</svg>
